<svg width="404" height="162" viewBox="0 0 404 162" fill="none" xmlns="http://www.w3.org/2000/svg">
<circle cx="323" cy="81" r="76" fill="white" stroke="#2E4BAF" stroke-width="10"/>
<circle cx="323" cy="81" r="61.8387" fill="#68E8D1" fill-opacity="0.6"/>
<g clip-path="url(#clip0_4_42)">
<path d="M333.192 103.083C324.665 103.083 317.293 98.2583 313.623 91.1919H333.192V84.3973H311.381C311.211 83.2762 311.109 82.1551 311.109 81C311.109 79.8449 311.211 78.7238 311.381 77.6027H333.192V70.8081H313.623C317.293 63.7417 324.699 58.9175 333.192 58.9175C338.662 58.9175 343.69 60.9219 347.563 64.2513L353.576 58.238C348.174 53.3799 341.006 50.4242 333.192 50.4242C319.874 50.4242 308.595 58.9514 304.383 70.8081H292.424V77.6027H302.82C302.684 78.7238 302.616 79.8449 302.616 81C302.616 82.1551 302.684 83.2762 302.82 84.3973H292.424V91.1919H304.383C308.595 103.049 319.874 111.576 333.192 111.576C341.04 111.576 348.174 108.62 353.576 103.762L347.529 97.7488C343.69 101.078 338.696 103.083 333.192 103.083Z" fill="#2E4BAF"/>
</g>
<circle cx="81" cy="81" r="76" fill="white" stroke="#2E4BAF" stroke-width="10"/>
<circle cx="81" cy="81" r="61.8387" fill="#68E8D1"/>
<path d="M82.2108 77.1485C74.4989 75.144 72.0189 73.0717 72.0189 69.8442C72.0189 66.1412 75.4502 63.5592 81.1916 63.5592C87.2388 63.5592 89.4811 66.4469 89.6849 70.6936H97.1929C96.9551 64.8502 93.388 59.4824 86.2876 57.7498V50.3097H76.0956V57.6479C69.5049 59.0748 64.2051 63.3554 64.2051 69.9122C64.2051 77.76 70.6939 81.6669 80.1724 83.9431C88.6657 85.9815 90.3644 88.9711 90.3644 92.1306C90.3644 94.4747 88.6997 98.2118 81.1916 98.2118C74.1931 98.2118 71.4413 95.0863 71.0676 91.0774H63.5935C64.0012 98.5175 69.5728 102.696 76.0956 104.089V111.461H86.2876V104.157C92.9123 102.9 98.1782 99.0611 98.1782 92.0966C98.1782 82.4483 89.9227 79.1529 82.2108 77.1485Z" fill="#2E4BAF"/>
<path d="M233.768 107.768C234.744 106.791 234.744 105.209 233.768 104.232L217.858 88.3223C216.882 87.346 215.299 87.346 214.322 88.3223C213.346 89.2986 213.346 90.8816 214.322 91.8579L228.464 106L214.322 120.142C213.346 121.118 213.346 122.701 214.322 123.678C215.299 124.654 216.882 124.654 217.858 123.678L233.768 107.768ZM172 108.5H232V103.5H172V108.5Z" fill="#68E8D1"/>
<path d="M170.232 54.2322C169.256 55.2085 169.256 56.7915 170.232 57.7678L186.142 73.6777C187.118 74.654 188.701 74.654 189.678 73.6777C190.654 72.7014 190.654 71.1184 189.678 70.1421L175.536 56L189.678 41.8579C190.654 40.8816 190.654 39.2986 189.678 38.3223C188.701 37.346 187.118 37.346 186.142 38.3223L170.232 54.2322ZM232 53.5L172 53.5V58.5L232 58.5V53.5Z" fill="#2E4BAF"/>
<defs>
<clipPath id="clip0_4_42">
<rect width="81.5355" height="81.5355" fill="white" transform="translate(282.232 40.2323)"/>
</clipPath>
</defs>
</svg>
