<svg width="66" height="88" viewBox="0 0 66 88" fill="none" xmlns="http://www.w3.org/2000/svg">
<path d="M64.7678 70.7678C65.7441 69.7915 65.7441 68.2085 64.7678 67.2322L48.8579 51.3223C47.8816 50.346 46.2986 50.346 45.3223 51.3223C44.346 52.2986 44.346 53.8816 45.3223 54.8579L59.4645 69L45.3223 83.1421C44.346 84.1184 44.346 85.7014 45.3223 86.6777C46.2986 87.654 47.8816 87.654 48.8579 86.6777L64.7678 70.7678ZM3 71.5H63V66.5H3V71.5Z" fill="#68E8D1"/>
<path d="M1.23223 17.2322C0.255919 18.2085 0.255919 19.7915 1.23223 20.7678L17.1421 36.6777C18.1184 37.654 19.7014 37.654 20.6777 36.6777C21.654 35.7014 21.654 34.1184 20.6777 33.1421L6.53553 19L20.6777 4.85786C21.654 3.88155 21.654 2.29864 20.6777 1.32233C19.7014 0.34602 18.1184 0.34602 17.1421 1.32233L1.23223 17.2322ZM63 16.5L3 16.5V21.5L63 21.5V16.5Z" fill="#2E4BAF"/>
</svg>
