<svg width="162" height="162" viewBox="0 0 162 162" fill="none" xmlns="http://www.w3.org/2000/svg">
<circle cx="81" cy="81" r="76" fill="white" stroke="#2E4BAF" stroke-width="10"/>
<circle cx="81" cy="81" r="61.8387" fill="#68E8D1" fill-opacity="0.6"/>
<g clip-path="url(#clip0_3_26)">
<path d="M91.1919 103.083C82.6647 103.083 75.2925 98.2583 71.6234 91.1919H91.1919V84.3973H69.3812C69.2113 83.2762 69.1094 82.1551 69.1094 81C69.1094 79.8449 69.2113 78.7238 69.3812 77.6027H91.1919V70.8081H71.6234C75.2925 63.7417 82.6987 58.9175 91.1919 58.9175C96.6616 58.9175 101.69 60.9219 105.563 64.2513L111.576 58.238C106.174 53.3799 99.0057 50.4242 91.1919 50.4242C77.8745 50.4242 66.5954 58.9514 62.3827 70.8081H50.4242V77.6027H60.82C60.6841 78.7238 60.6161 79.8449 60.6161 81C60.6161 82.1551 60.6841 83.2762 60.82 84.3973H50.4242V91.1919H62.3827C66.5954 103.049 77.8745 111.576 91.1919 111.576C99.0397 111.576 106.174 108.62 111.576 103.762L105.529 97.7488C101.69 101.078 96.6956 103.083 91.1919 103.083Z" fill="#2E4BAF"/>
</g>
<defs>
<clipPath id="clip0_3_26">
<rect width="81.5355" height="81.5355" fill="white" transform="translate(40.2323 40.2323)"/>
</clipPath>
</defs>
</svg>
